<svg xmlns="http://www.w3.org/2000/svg" style="display: none;">
  <symbol id="icon-sidebarIcon1" viewBox="0 0 25 24">
    <path d="M19.5 4H15.5V3C15.5 2.20435 15.1839 1.44129 14.6213 0.87868C14.0587 0.31607 13.2956 0 12.5 0C11.7044 0 10.9413 0.31607 10.3787 0.87868C9.81607 1.44129 9.5 2.20435 9.5 3V4H5.5C4.17441 4.00159 2.90356 4.52888 1.96622 5.46622C1.02888 6.40356 0.501588 7.67441 0.5 9L0.5 19C0.501588 20.3256 1.02888 21.5964 1.96622 22.5338C2.90356 23.4711 4.17441 23.9984 5.5 24H19.5C20.8256 23.9984 22.0964 23.4711 23.0338 22.5338C23.9711 21.5964 24.4984 20.3256 24.5 19V9C24.4984 7.67441 23.9711 6.40356 23.0338 5.46622C22.0964 4.52888 20.8256 4.00159 19.5 4ZM11.5 3C11.5 2.73478 11.6054 2.48043 11.7929 2.29289C11.9804 2.10536 12.2348 2 12.5 2C12.7652 2 13.0196 2.10536 13.2071 2.29289C13.3946 2.48043 13.5 2.73478 13.5 3V5C13.5 5.26522 13.3946 5.51957 13.2071 5.70711C13.0196 5.89464 12.7652 6 12.5 6C12.2348 6 11.9804 5.89464 11.7929 5.70711C11.6054 5.51957 11.5 5.26522 11.5 5V3ZM22.5 19C22.5 19.7956 22.1839 20.5587 21.6213 21.1213C21.0587 21.6839 20.2956 22 19.5 22H5.5C4.70435 22 3.94129 21.6839 3.37868 21.1213C2.81607 20.5587 2.5 19.7956 2.5 19V9C2.5 8.20435 2.81607 7.44129 3.37868 6.87868C3.94129 6.31607 4.70435 6 5.5 6H9.684C9.88765 6.58454 10.2682 7.09123 10.7727 7.44977C11.2773 7.80831 11.881 8.00095 12.5 8.00095C13.119 8.00095 13.7227 7.80831 14.2273 7.44977C14.7318 7.09123 15.1124 6.58454 15.316 6H19.5C20.2956 6 21.0587 6.31607 21.6213 6.87868C22.1839 7.44129 22.5 8.20435 22.5 9V19ZM10.5 10H5.5C5.23478 10 4.98043 10.1054 4.79289 10.2929C4.60536 10.4804 4.5 10.7348 4.5 11V19C4.5 19.2652 4.60536 19.5196 4.79289 19.7071C4.98043 19.8946 5.23478 20 5.5 20H10.5C10.7652 20 11.0196 19.8946 11.2071 19.7071C11.3946 19.5196 11.5 19.2652 11.5 19V11C11.5 10.7348 11.3946 10.4804 11.2071 10.2929C11.0196 10.1054 10.7652 10 10.5 10ZM9.5 18H6.5V12H9.5V18ZM20.5 15C20.5 15.2652 20.3946 15.5196 20.2071 15.7071C20.0196 15.8946 19.7652 16 19.5 16H14.5C14.2348 16 13.9804 15.8946 13.7929 15.7071C13.6054 15.5196 13.5 15.2652 13.5 15C13.5 14.7348 13.6054 14.4804 13.7929 14.2929C13.9804 14.1054 14.2348 14 14.5 14H19.5C19.7652 14 20.0196 14.1054 20.2071 14.2929C20.3946 14.4804 20.5 14.7348 20.5 15ZM20.5 11C20.5 11.2652 20.3946 11.5196 20.2071 11.7071C20.0196 11.8946 19.7652 12 19.5 12H14.5C14.2348 12 13.9804 11.8946 13.7929 11.7071C13.6054 11.5196 13.5 11.2652 13.5 11C13.5 10.7348 13.6054 10.4804 13.7929 10.2929C13.9804 10.1054 14.2348 10 14.5 10H19.5C19.7652 10 20.0196 10.1054 20.2071 10.2929C20.3946 10.4804 20.5 10.7348 20.5 11ZM18.5 19C18.5 19.2652 18.3946 19.5196 18.2071 19.7071C18.0196 19.8946 17.7652 20 17.5 20H14.5C14.2348 20 13.9804 19.8946 13.7929 19.7071C13.6054 19.5196 13.5 19.2652 13.5 19C13.5 18.7348 13.6054 18.4804 13.7929 18.2929C13.9804 18.1054 14.2348 18 14.5 18H17.5C17.7652 18 18.0196 18.1054 18.2071 18.2929C18.3946 18.4804 18.5 18.7348 18.5 19Z"  />
  </symbol>
  <symbol id="icon-sidebarIcon2" viewBox="0 0 25 24">
    <path d="M8.5 11H4.5C3.70435 11 2.94129 10.6839 2.37868 10.1213C1.81607 9.55871 1.5 8.79565 1.5 8V4C1.5 3.20435 1.81607 2.44129 2.37868 1.87868C2.94129 1.31607 3.70435 1 4.5 1H8.5C9.29565 1 10.0587 1.31607 10.6213 1.87868C11.1839 2.44129 11.5 3.20435 11.5 4V8C11.5 8.79565 11.1839 9.55871 10.6213 10.1213C10.0587 10.6839 9.29565 11 8.5 11ZM4.5 3C4.23478 3 3.98043 3.10536 3.79289 3.29289C3.60536 3.48043 3.5 3.73478 3.5 4V8C3.5 8.26522 3.60536 8.51957 3.79289 8.70711C3.98043 8.89464 4.23478 9 4.5 9H8.5C8.76522 9 9.01957 8.89464 9.20711 8.70711C9.39464 8.51957 9.5 8.26522 9.5 8V4C9.5 3.73478 9.39464 3.48043 9.20711 3.29289C9.01957 3.10536 8.76522 3 8.5 3H4.5ZM20.5 11H16.5C15.7044 11 14.9413 10.6839 14.3787 10.1213C13.8161 9.55871 13.5 8.79565 13.5 8V4C13.5 3.20435 13.8161 2.44129 14.3787 1.87868C14.9413 1.31607 15.7044 1 16.5 1H20.5C21.2956 1 22.0587 1.31607 22.6213 1.87868C23.1839 2.44129 23.5 3.20435 23.5 4V8C23.5 8.79565 23.1839 9.55871 22.6213 10.1213C22.0587 10.6839 21.2956 11 20.5 11ZM16.5 3C16.2348 3 15.9804 3.10536 15.7929 3.29289C15.6054 3.48043 15.5 3.73478 15.5 4V8C15.5 8.26522 15.6054 8.51957 15.7929 8.70711C15.9804 8.89464 16.2348 9 16.5 9H20.5C20.7652 9 21.0196 8.89464 21.2071 8.70711C21.3946 8.51957 21.5 8.26522 21.5 8V4C21.5 3.73478 21.3946 3.48043 21.2071 3.29289C21.0196 3.10536 20.7652 3 20.5 3H16.5ZM8.5 23H4.5C3.70435 23 2.94129 22.6839 2.37868 22.1213C1.81607 21.5587 1.5 20.7956 1.5 20V16C1.5 15.2044 1.81607 14.4413 2.37868 13.8787C2.94129 13.3161 3.70435 13 4.5 13H8.5C9.29565 13 10.0587 13.3161 10.6213 13.8787C11.1839 14.4413 11.5 15.2044 11.5 16V20C11.5 20.7956 11.1839 21.5587 10.6213 22.1213C10.0587 22.6839 9.29565 23 8.5 23ZM4.5 15C4.23478 15 3.98043 15.1054 3.79289 15.2929C3.60536 15.4804 3.5 15.7348 3.5 16V20C3.5 20.2652 3.60536 20.5196 3.79289 20.7071C3.98043 20.8946 4.23478 21 4.5 21H8.5C8.76522 21 9.01957 20.8946 9.20711 20.7071C9.39464 20.5196 9.5 20.2652 9.5 20V16C9.5 15.7348 9.39464 15.4804 9.20711 15.2929C9.01957 15.1054 8.76522 15 8.5 15H4.5ZM20.5 23H16.5C15.7044 23 14.9413 22.6839 14.3787 22.1213C13.8161 21.5587 13.5 20.7956 13.5 20V16C13.5 15.2044 13.8161 14.4413 14.3787 13.8787C14.9413 13.3161 15.7044 13 16.5 13H20.5C21.2956 13 22.0587 13.3161 22.6213 13.8787C23.1839 14.4413 23.5 15.2044 23.5 16V20C23.5 20.7956 23.1839 21.5587 22.6213 22.1213C22.0587 22.6839 21.2956 23 20.5 23ZM16.5 15C16.2348 15 15.9804 15.1054 15.7929 15.2929C15.6054 15.4804 15.5 15.7348 15.5 16V20C15.5 20.2652 15.6054 20.5196 15.7929 20.7071C15.9804 20.8946 16.2348 21 16.5 21H20.5C20.7652 21 21.0196 20.8946 21.2071 20.7071C21.3946 20.5196 21.5 20.2652 21.5 20V16C21.5 15.7348 21.3946 15.4804 21.2071 15.2929C21.0196 15.1054 20.7652 15 20.5 15H16.5Z"  />
  </symbol>
  <symbol id="icon-sidebarIcon3" viewBox="0 0 23 24">
    <path d="M17.5 24H5.5C4.17441 23.9984 2.90356 23.4711 1.96622 22.5338C1.02888 21.5964 0.501588 20.3256 0.5 19V5C0.501588 3.67441 1.02888 2.40356 1.96622 1.46622C2.90356 0.528882 4.17441 0.00158786 5.5 0L17.5 0C18.8256 0.00158786 20.0964 0.528882 21.0338 1.46622C21.9711 2.40356 22.4984 3.67441 22.5 5V19C22.4984 20.3256 21.9711 21.5964 21.0338 22.5338C20.0964 23.4711 18.8256 23.9984 17.5 24ZM5.5 2C4.70435 2 3.94129 2.31607 3.37868 2.87868C2.81607 3.44129 2.5 4.20435 2.5 5V19C2.5 19.7956 2.81607 20.5587 3.37868 21.1213C3.94129 21.6839 4.70435 22 5.5 22H17.5C18.2956 22 19.0587 21.6839 19.6213 21.1213C20.1839 20.5587 20.5 19.7956 20.5 19V5C20.5 4.20435 20.1839 3.44129 19.6213 2.87868C19.0587 2.31607 18.2956 2 17.5 2H5.5ZM15.5 10H7.5C6.70435 10 5.94129 9.68393 5.37868 9.12132C4.81607 8.55871 4.5 7.79565 4.5 7C4.5 6.20435 4.81607 5.44129 5.37868 4.87868C5.94129 4.31607 6.70435 4 7.5 4H15.5C16.2956 4 17.0587 4.31607 17.6213 4.87868C18.1839 5.44129 18.5 6.20435 18.5 7C18.5 7.79565 18.1839 8.55871 17.6213 9.12132C17.0587 9.68393 16.2956 10 15.5 10ZM7.5 6C7.23478 6 6.98043 6.10536 6.79289 6.29289C6.60536 6.48043 6.5 6.73478 6.5 7C6.5 7.26522 6.60536 7.51957 6.79289 7.70711C6.98043 7.89464 7.23478 8 7.5 8H15.5C15.7652 8 16.0196 7.89464 16.2071 7.70711C16.3946 7.51957 16.5 7.26522 16.5 7C16.5 6.73478 16.3946 6.48043 16.2071 6.29289C16.0196 6.10536 15.7652 6 15.5 6H7.5ZM5.5 13C5.30222 13 5.10888 13.0586 4.94443 13.1685C4.77998 13.2784 4.65181 13.4346 4.57612 13.6173C4.50043 13.8 4.48063 14.0011 4.51921 14.1951C4.5578 14.3891 4.65304 14.5673 4.79289 14.7071C4.93275 14.847 5.11093 14.9422 5.30491 14.9808C5.49889 15.0194 5.69996 14.9996 5.88268 14.9239C6.06541 14.8482 6.22159 14.72 6.33147 14.5556C6.44135 14.3911 6.5 14.1978 6.5 14C6.5 13.7348 6.39464 13.4804 6.20711 13.2929C6.01957 13.1054 5.76522 13 5.5 13ZM9.5 13C9.30222 13 9.10888 13.0586 8.94443 13.1685C8.77998 13.2784 8.65181 13.4346 8.57612 13.6173C8.50043 13.8 8.48063 14.0011 8.51921 14.1951C8.5578 14.3891 8.65304 14.5673 8.79289 14.7071C8.93275 14.847 9.11093 14.9422 9.30491 14.9808C9.49889 15.0194 9.69996 14.9996 9.88268 14.9239C10.0654 14.8482 10.2216 14.72 10.3315 14.5556C10.4414 14.3911 10.5 14.1978 10.5 14C10.5 13.7348 10.3946 13.4804 10.2071 13.2929C10.0196 13.1054 9.76522 13 9.5 13ZM13.5 13C13.3022 13 13.1089 13.0586 12.9444 13.1685C12.78 13.2784 12.6518 13.4346 12.5761 13.6173C12.5004 13.8 12.4806 14.0011 12.5192 14.1951C12.5578 14.3891 12.653 14.5673 12.7929 14.7071C12.9327 14.847 13.1109 14.9422 13.3049 14.9808C13.4989 15.0194 13.7 14.9996 13.8827 14.9239C14.0654 14.8482 14.2216 14.72 14.3315 14.5556C14.4414 14.3911 14.5 14.1978 14.5 14C14.5 13.7348 14.3946 13.4804 14.2071 13.2929C14.0196 13.1054 13.7652 13 13.5 13ZM5.5 17C5.30222 17 5.10888 17.0586 4.94443 17.1685C4.77998 17.2784 4.65181 17.4346 4.57612 17.6173C4.50043 17.8 4.48063 18.0011 4.51921 18.1951C4.5578 18.3891 4.65304 18.5673 4.79289 18.7071C4.93275 18.847 5.11093 18.9422 5.30491 18.9808C5.49889 19.0194 5.69996 18.9996 5.88268 18.9239C6.06541 18.8482 6.22159 18.72 6.33147 18.5556C6.44135 18.3911 6.5 18.1978 6.5 18C6.5 17.7348 6.39464 17.4804 6.20711 17.2929C6.01957 17.1054 5.76522 17 5.5 17ZM9.5 17C9.30222 17 9.10888 17.0586 8.94443 17.1685C8.77998 17.2784 8.65181 17.4346 8.57612 17.6173C8.50043 17.8 8.48063 18.0011 8.51921 18.1951C8.5578 18.3891 8.65304 18.5673 8.79289 18.7071C8.93275 18.847 9.11093 18.9422 9.30491 18.9808C9.49889 19.0194 9.69996 18.9996 9.88268 18.9239C10.0654 18.8482 10.2216 18.72 10.3315 18.5556C10.4414 18.3911 10.5 18.1978 10.5 18C10.5 17.7348 10.3946 17.4804 10.2071 17.2929C10.0196 17.1054 9.76522 17 9.5 17ZM17.5 13C17.3022 13 17.1089 13.0586 16.9444 13.1685C16.78 13.2784 16.6518 13.4346 16.5761 13.6173C16.5004 13.8 16.4806 14.0011 16.5192 14.1951C16.5578 14.3891 16.653 14.5673 16.7929 14.7071C16.9327 14.847 17.1109 14.9422 17.3049 14.9808C17.4989 15.0194 17.7 14.9996 17.8827 14.9239C18.0654 14.8482 18.2216 14.72 18.3315 14.5556C18.4414 14.3911 18.5 14.1978 18.5 14C18.5 13.7348 18.3946 13.4804 18.2071 13.2929C18.0196 13.1054 17.7652 13 17.5 13ZM18.5 18C18.5 17.7348 18.3946 17.4804 18.2071 17.2929C18.0196 17.1054 17.7652 17 17.5 17H13.5C13.2348 17 12.9804 17.1054 12.7929 17.2929C12.6054 17.4804 12.5 17.7348 12.5 18C12.5 18.2652 12.6054 18.5196 12.7929 18.7071C12.9804 18.8946 13.2348 19 13.5 19H17.5C17.7652 19 18.0196 18.8946 18.2071 18.7071C18.3946 18.5196 18.5 18.2652 18.5 18Z"  />
  </symbol>
  <symbol id="icon-sidebarIcon4" viewBox="0 0 25 24">
    <path d="M8.5 12C8.76522 12 9.01957 12.1054 9.20711 12.2929C9.39464 12.4804 9.5 12.7348 9.5 13C9.5 13.2652 9.39464 13.5196 9.20711 13.7071C9.01957 13.8946 8.76522 14 8.5 14H5.5C5.23478 14 4.98043 13.8946 4.79289 13.7071C4.60536 13.5196 4.5 13.2652 4.5 13C4.5 12.7348 4.60536 12.4804 4.79289 12.2929C4.98043 12.1054 5.23478 12 5.5 12H8.5ZM14.5 9C14.5 8.73478 14.3946 8.48043 14.2071 8.29289C14.0196 8.10536 13.7652 8 13.5 8H5.5C5.23478 8 4.98043 8.10536 4.79289 8.29289C4.60536 8.48043 4.5 8.73478 4.5 9C4.5 9.26522 4.60536 9.51957 4.79289 9.70711C4.98043 9.89464 5.23478 10 5.5 10H13.5C13.7652 10 14.0196 9.89464 14.2071 9.70711C14.3946 9.51957 14.5 9.26522 14.5 9ZM5.5 6H13.5C13.7652 6 14.0196 5.89464 14.2071 5.70711C14.3946 5.51957 14.5 5.26522 14.5 5C14.5 4.73478 14.3946 4.48043 14.2071 4.29289C14.0196 4.10536 13.7652 4 13.5 4H5.5C5.23478 4 4.98043 4.10536 4.79289 4.29289C4.60536 4.48043 4.5 4.73478 4.5 5C4.5 5.26522 4.60536 5.51957 4.79289 5.70711C4.98043 5.89464 5.23478 6 5.5 6ZM17.5 19.444V23.277C17.5001 23.4197 17.4578 23.5591 17.3786 23.6777C17.2994 23.7964 17.1868 23.8888 17.055 23.9434C16.9232 23.998 16.7781 24.0123 16.6382 23.9845C16.4983 23.9566 16.3698 23.8879 16.269 23.787L15.5 23.019L14.731 23.787C14.6302 23.8879 14.5017 23.9566 14.3618 23.9845C14.2219 24.0123 14.0768 23.998 13.945 23.9434C13.8132 23.8888 13.7006 23.7964 13.6214 23.6777C13.5422 23.5591 13.4999 23.4197 13.5 23.277V19.444C12.7373 19.0058 12.141 18.3277 11.8038 17.5154C11.4666 16.703 11.4076 15.8019 11.6358 14.9525C11.864 14.103 12.3667 13.3529 13.0656 12.8189C13.7646 12.2849 14.6204 11.997 15.5 12C15.838 12.0042 16.1741 12.0519 16.5 12.142V5C16.5 4.20435 16.1839 3.44129 15.6213 2.87868C15.0587 2.31607 14.2956 2 13.5 2H5.5C4.70435 2 3.94129 2.31607 3.37868 2.87868C2.81607 3.44129 2.5 4.20435 2.5 5V17C2.5 17.7956 2.81607 18.5587 3.37868 19.1213C3.94129 19.6839 4.70435 20 5.5 20H10.5C10.7652 20 11.0196 20.1054 11.2071 20.2929C11.3946 20.4804 11.5 20.7348 11.5 21C11.5 21.2652 11.3946 21.5196 11.2071 21.7071C11.0196 21.8946 10.7652 22 10.5 22H5.5C4.17441 21.9984 2.90356 21.4711 1.96622 20.5338C1.02888 19.5964 0.501588 18.3256 0.5 17V5C0.501588 3.67441 1.02888 2.40356 1.96622 1.46622C2.90356 0.528882 4.17441 0.00158786 5.5 0L13.5 0C14.8256 0.00158786 16.0964 0.528882 17.0338 1.46622C17.9711 2.40356 18.4984 3.67441 18.5 5V13.382C18.8917 13.8219 19.1801 14.3438 19.344 14.9096C19.5079 15.4753 19.5433 16.0706 19.4474 16.6518C19.3515 17.2329 19.1269 17.7853 18.7899 18.2684C18.453 18.7516 18.0122 19.1532 17.5 19.444ZM17.5 16C17.5 15.6044 17.3827 15.2178 17.1629 14.8889C16.9432 14.56 16.6308 14.3036 16.2654 14.1522C15.8999 14.0009 15.4978 13.9613 15.1098 14.0384C14.7219 14.1156 14.3655 14.3061 14.0858 14.5858C13.8061 14.8655 13.6156 15.2219 13.5384 15.6098C13.4613 15.9978 13.5009 16.3999 13.6522 16.7654C13.8036 17.1308 14.06 17.4432 14.3889 17.6629C14.7178 17.8827 15.1044 18 15.5 18C16.0304 18 16.5391 17.7893 16.9142 17.4142C17.2893 17.0391 17.5 16.5304 17.5 16Z"  />
  </symbol>
  <symbol id="icon-sidebarIcon5" viewBox="0 0 25 24">
    <g clip-path="url(#clip0_1420_452)">
      <path d="M21.5 12H18.5C17.9696 12 17.4609 12.2107 17.0858 12.5858C16.7107 12.9609 16.5 13.4696 16.5 14C16.5 14.5304 16.2893 15.0391 15.9142 15.4142C15.5391 15.7893 15.0304 16 14.5 16H10.5C9.96957 16 9.46086 15.7893 9.08579 15.4142C8.71071 15.0391 8.5 14.5304 8.5 14C8.5 13.4696 8.28929 12.9609 7.91421 12.5858C7.53914 12.2107 7.03043 12 6.5 12H3.5C2.70435 12 1.94129 12.3161 1.37868 12.8787C0.81607 13.4413 0.5 14.2044 0.5 15L0.5 19C0.501588 20.3256 1.02888 21.5964 1.96622 22.5338C2.90356 23.4711 4.17441 23.9984 5.5 24H19.5C20.8256 23.9984 22.0964 23.4711 23.0338 22.5338C23.9711 21.5964 24.4984 20.3256 24.5 19V15C24.5 14.2044 24.1839 13.4413 23.6213 12.8787C23.0587 12.3161 22.2956 12 21.5 12ZM22.5 19C22.5 19.7956 22.1839 20.5587 21.6213 21.1213C21.0587 21.6839 20.2956 22 19.5 22H5.5C4.70435 22 3.94129 21.6839 3.37868 21.1213C2.81607 20.5587 2.5 19.7956 2.5 19V15C2.5 14.7348 2.60536 14.4804 2.79289 14.2929C2.98043 14.1054 3.23478 14 3.5 14H6.5C6.5 15.0609 6.92143 16.0783 7.67157 16.8284C8.42172 17.5786 9.43913 18 10.5 18H14.5C15.5609 18 16.5783 17.5786 17.3284 16.8284C18.0786 16.0783 18.5 15.0609 18.5 14H21.5C21.7652 14 22.0196 14.1054 22.2071 14.2929C22.3946 14.4804 22.5 14.7348 22.5 15V19Z" />
      <path d="M3.5 10H21.5C21.7652 10 22.0196 9.89464 22.2071 9.70711C22.3946 9.51957 22.5 9.26522 22.5 9C22.5 8.73478 22.3946 8.48043 22.2071 8.29289C22.0196 8.10536 21.7652 8 21.5 8H3.5C3.23478 8 2.98043 8.10536 2.79289 8.29289C2.60536 8.48043 2.5 8.73478 2.5 9C2.5 9.26522 2.60536 9.51957 2.79289 9.70711C2.98043 9.89464 3.23478 10 3.5 10Z"  />
      <path d="M3.5 6H21.5C21.7652 6 22.0196 5.89464 22.2071 5.70711C22.3946 5.51957 22.5 5.26522 22.5 5C22.5 4.73478 22.3946 4.48043 22.2071 4.29289C22.0196 4.10536 21.7652 4 21.5 4H3.5C3.23478 4 2.98043 4.10536 2.79289 4.29289C2.60536 4.48043 2.5 4.73478 2.5 5C2.5 5.26522 2.60536 5.51957 2.79289 5.70711C2.98043 5.89464 3.23478 6 3.5 6Z"  />
    </g>
    <defs>
      <clipPath id="clip0_1420_452">
        <rect width="24" height="24"  transform="translate(0.5)" />
      </clipPath>
    </defs>
  </symbol>
  <symbol id="icon-sidebarIcon6" viewBox="0 0 25 24">
    <g clip-path="url(#clip0_1420_456)">
      <path d="M23.5 22H5.5C4.70435 22 3.94129 21.6839 3.37868 21.1213C2.81607 20.5587 2.5 19.7956 2.5 19V1C2.5 0.734784 2.39464 0.48043 2.20711 0.292893C2.01957 0.105357 1.76522 0 1.5 0C1.23478 0 0.98043 0.105357 0.792893 0.292893C0.605357 0.48043 0.5 0.734784 0.5 1L0.5 19C0.501588 20.3256 1.02888 21.5964 1.96622 22.5338C2.90356 23.4711 4.17441 23.9984 5.5 24H23.5C23.7652 24 24.0196 23.8946 24.2071 23.7071C24.3946 23.5196 24.5 23.2652 24.5 23C24.5 22.7348 24.3946 22.4804 24.2071 22.2929C24.0196 22.1054 23.7652 22 23.5 22Z"  />
      <path d="M6.5 20C6.76522 20 7.01957 19.8946 7.20711 19.7071C7.39464 19.5196 7.5 19.2652 7.5 19V12C7.5 11.7348 7.39464 11.4804 7.20711 11.2929C7.01957 11.1054 6.76522 11 6.5 11C6.23478 11 5.98043 11.1054 5.79289 11.2929C5.60536 11.4804 5.5 11.7348 5.5 12V19C5.5 19.2652 5.60536 19.5196 5.79289 19.7071C5.98043 19.8946 6.23478 20 6.5 20Z"  />
      <path d="M10.5 10V19C10.5 19.2652 10.6054 19.5196 10.7929 19.7071C10.9804 19.8946 11.2348 20 11.5 20C11.7652 20 12.0196 19.8946 12.2071 19.7071C12.3946 19.5196 12.5 19.2652 12.5 19V10C12.5 9.73478 12.3946 9.48043 12.2071 9.29289C12.0196 9.10536 11.7652 9 11.5 9C11.2348 9 10.9804 9.10536 10.7929 9.29289C10.6054 9.48043 10.5 9.73478 10.5 10Z"  />
      <path d="M15.5 13V19C15.5 19.2652 15.6054 19.5196 15.7929 19.7071C15.9804 19.8946 16.2348 20 16.5 20C16.7652 20 17.0196 19.8946 17.2071 19.7071C17.3946 19.5196 17.5 19.2652 17.5 19V13C17.5 12.7348 17.3946 12.4804 17.2071 12.2929C17.0196 12.1054 16.7652 12 16.5 12C16.2348 12 15.9804 12.1054 15.7929 12.2929C15.6054 12.4804 15.5 12.7348 15.5 13Z"  />
      <path d="M20.5 9V19C20.5 19.2652 20.6054 19.5196 20.7929 19.7071C20.9804 19.8946 21.2348 20 21.5 20C21.7652 20 22.0196 19.8946 22.2071 19.7071C22.3946 19.5196 22.5 19.2652 22.5 19V9C22.5 8.73478 22.3946 8.48043 22.2071 8.29289C22.0196 8.10536 21.7652 8 21.5 8C21.2348 8 20.9804 8.10536 20.7929 8.29289C20.6054 8.48043 20.5 8.73478 20.5 9Z"  />
      <path d="M6.49997 8.99992C6.76516 8.99986 7.01948 8.89447 7.20697 8.70692L10.793 5.12092C10.9836 4.93934 11.2367 4.83806 11.5 4.83806C11.7632 4.83806 12.0164 4.93934 12.207 5.12092L14.379 7.29292C14.9416 7.85533 15.7045 8.17128 16.5 8.17128C17.2955 8.17128 18.0584 7.85533 18.621 7.29292L24.207 1.70692C24.3891 1.51832 24.4899 1.26571 24.4876 1.00352C24.4854 0.741321 24.3802 0.490508 24.1948 0.3051C24.0094 0.119692 23.7586 0.0145233 23.4964 0.0122448C23.2342 0.00996641 22.9816 0.110761 22.793 0.292919L17.207 5.87792C17.0194 6.06539 16.7651 6.17071 16.5 6.17071C16.2348 6.17071 15.9805 6.06539 15.793 5.87792L13.621 3.70692C13.0584 3.14451 12.2955 2.82856 11.5 2.82856C10.7045 2.82856 9.94155 3.14451 9.37897 3.70692L5.79297 7.29292C5.65316 7.43277 5.55795 7.61093 5.51939 7.80489C5.48082 7.99884 5.50062 8.19987 5.57629 8.38257C5.65196 8.56527 5.7801 8.72144 5.94451 8.83132C6.10892 8.94121 6.30222 8.99988 6.49997 8.99992Z"  />
    </g>
    <defs>
      <clipPath id="clip0_1420_456">
        <rect width="24" height="24"  transform="translate(0.5)" />
      </clipPath>
    </defs>
  </symbol>
  <symbol id="icon-sidebarIcon7" viewBox="0 0 25 24">
    <g clip-path="url(#clip0_1420_463)">
      <path d="M19.213 12H14.5C13.9695 12 13.4608 11.7893 13.0858 11.4143C12.7107 11.0392 12.5 10.5305 12.5 10V5.27404C12.5013 4.81403 12.3969 4.35986 12.1947 3.94665C11.9925 3.53344 11.698 3.17227 11.334 2.89104C10.989 2.61786 10.5859 2.42762 10.1557 2.33503C9.72549 2.24244 9.27978 2.24997 8.85297 2.35704C6.42863 2.95886 4.2823 4.37011 2.76894 6.35741C1.25558 8.34471 0.465845 10.789 0.53033 13.2861C0.594816 15.7832 1.50966 18.1835 3.12358 20.09C4.73749 21.9966 6.9538 23.2952 9.40597 23.771C12.1631 24.2988 15.0176 23.7525 17.385 22.244C19.7524 20.7355 21.4535 18.379 22.14 15.657C22.2474 15.2297 22.2553 14.7833 22.1629 14.3525C22.0704 13.9216 21.8803 13.5177 21.607 13.172C21.3224 12.8085 20.9592 12.5142 20.5445 12.3112C20.1299 12.1082 19.6746 12.0018 19.213 12ZM20.201 15.168C19.8181 16.7099 19.0325 18.1224 17.9246 19.2611C16.8167 20.3997 15.4263 21.2237 13.8955 21.6486C12.3647 22.0736 10.7485 22.0843 9.21217 21.6797C7.67586 21.2751 6.27459 20.4697 5.15168 19.3459C4.02877 18.222 3.22452 16.8201 2.82119 15.2834C2.41786 13.7468 2.42993 12.1306 2.85617 10.6002C3.2824 9.0697 4.1075 7.67993 5.24707 6.57299C6.38664 5.46604 7.79979 4.68165 9.34197 4.30004C9.4739 4.26708 9.61172 4.26547 9.74439 4.29534C9.87706 4.32521 10.0009 4.38572 10.106 4.47204C10.2301 4.56665 10.3307 4.68857 10.4001 4.82835C10.4694 4.96812 10.5057 5.122 10.506 5.27804V10C10.506 11.0609 10.9274 12.0783 11.6775 12.8285C12.4277 13.5786 13.4451 14 14.506 14H19.218C19.3754 14.0007 19.5306 14.037 19.6719 14.1063C19.8133 14.1756 19.937 14.276 20.034 14.4C20.119 14.5066 20.1782 14.6314 20.207 14.7646C20.2358 14.8978 20.2334 15.0359 20.2 15.168H20.201Z"  />
      <path d="M24.151 7.4459C23.6906 5.75337 22.7962 4.2104 21.5564 2.96967C20.3165 1.72895 18.7742 0.833486 17.082 0.371895C16.9046 0.324204 16.7217 0.299998 16.538 0.299895C16.2737 0.297385 16.0116 0.347263 15.7668 0.446648C15.5219 0.546033 15.2992 0.692954 15.1115 0.878921C14.9237 1.06489 14.7747 1.28622 14.673 1.53011C14.5713 1.77401 14.519 2.03564 14.519 2.29989V6.9999C14.519 7.79554 14.8351 8.55861 15.3977 9.12122C15.9603 9.68382 16.7233 9.9999 17.519 9.9999H22.238C22.5467 9.99693 22.8505 9.92283 23.1259 9.78337C23.4012 9.64391 23.6408 9.44284 23.8258 9.19578C24.0109 8.94872 24.1365 8.66232 24.1929 8.35883C24.2493 8.05535 24.2349 7.74294 24.151 7.4459ZM21.653 7.9999H17.515C17.2498 7.9999 16.9954 7.89454 16.8079 7.707C16.6203 7.51947 16.515 7.26511 16.515 6.9999L16.507 2.30689C16.5143 2.3016 16.523 2.29848 16.532 2.2979H16.558C17.9201 2.66898 19.161 3.39081 20.157 4.39134C21.153 5.39187 21.8691 6.63611 22.234 7.9999H21.653Z"  />
    </g>
    <defs>
      <clipPath id="clip0_1420_463">
        <rect width="24" height="24"  transform="translate(0.5)" />
      </clipPath>
    </defs>
  </symbol>
  <symbol id="icon-sidebarIcon8" viewBox="0 0 25 24">
    <g clip-path="url(#clip0_1420_466)">
      <path d="M19.081 2.14L12.816 0.0509967C12.6109 -0.0173244 12.3891 -0.0173244 12.184 0.0509967L5.919 2.14C4.92291 2.47088 4.05642 3.10725 3.44265 3.95871C2.82887 4.81016 2.49904 5.83338 2.5 6.883V12C2.5 19.563 11.7 23.74 12.094 23.914C12.2218 23.9708 12.3601 24.0001 12.5 24.0001C12.6399 24.0001 12.7782 23.9708 12.906 23.914C13.3 23.74 22.5 19.563 22.5 12V6.883C22.501 5.83338 22.1711 4.81016 21.5574 3.95871C20.9436 3.10725 20.0771 2.47088 19.081 2.14ZM20.5 12C20.5 17.455 14.181 21.033 12.5 21.889C10.817 21.036 4.5 17.469 4.5 12V6.883C4.50006 6.25327 4.69828 5.63954 5.06657 5.12874C5.43486 4.61794 5.95455 4.23599 6.552 4.037L12.5 2.054L18.448 4.037C19.0455 4.23599 19.5651 4.61794 19.9334 5.12874C20.3017 5.63954 20.4999 6.25327 20.5 6.883V12Z"  />
      <path d="M15.8 8.30008L11.612 12.5001L9.36798 10.1601C9.27792 10.0616 9.16907 9.98217 9.04784 9.92642C8.9266 9.87068 8.79544 9.83976 8.66207 9.83549C8.5287 9.83122 8.39583 9.85368 8.27128 9.90155C8.14673 9.94943 8.03302 10.0217 7.93685 10.1142C7.84068 10.2067 7.76399 10.3176 7.71131 10.4402C7.65862 10.5627 7.63101 10.6946 7.63009 10.8281C7.62917 10.9615 7.65496 11.0938 7.70595 11.2171C7.75694 11.3404 7.83209 11.4523 7.92698 11.5461L10.233 13.9461C10.405 14.1318 10.6128 14.2808 10.844 14.3839C11.0752 14.487 11.3249 14.5422 11.578 14.5461H11.611C11.859 14.5469 12.1048 14.4984 12.334 14.4035C12.5631 14.3086 12.7712 14.1691 12.946 13.9931L17.218 9.72107C17.3113 9.62797 17.3853 9.51739 17.4359 9.39567C17.4865 9.27394 17.5126 9.14345 17.5127 9.01164C17.5129 8.87982 17.487 8.74927 17.4367 8.62744C17.3864 8.50561 17.3126 8.39488 17.2195 8.30158C17.1264 8.20827 17.0158 8.13422 16.8941 8.08365C16.7723 8.03308 16.6419 8.00698 16.51 8.00684C16.3782 8.0067 16.2477 8.03252 16.1258 8.08284C16.004 8.13315 15.8933 8.20697 15.8 8.30008Z"  />
    </g>
    <defs>
      <clipPath id="clip0_1420_466">
        <rect width="24" height="24"  transform="translate(0.5)" />
      </clipPath>
    </defs>
  </symbol>
  <symbol id="icon-sidebarIcon9" viewBox="0 0 25 24">
    <g clip-path="url(#clip0_1420_469)">
      <path d="M19.5 2H18.5V1C18.5 0.734784 18.3946 0.48043 18.2071 0.292893C18.0196 0.105357 17.7652 0 17.5 0C17.2348 0 16.9804 0.105357 16.7929 0.292893C16.6054 0.48043 16.5 0.734784 16.5 1V2H8.5V1C8.5 0.734784 8.39464 0.48043 8.20711 0.292893C8.01957 0.105357 7.76522 0 7.5 0C7.23478 0 6.98043 0.105357 6.79289 0.292893C6.60536 0.48043 6.5 0.734784 6.5 1V2H5.5C4.17441 2.00159 2.90356 2.52888 1.96622 3.46622C1.02888 4.40356 0.501588 5.67441 0.5 7L0.5 19C0.501588 20.3256 1.02888 21.5964 1.96622 22.5338C2.90356 23.4711 4.17441 23.9984 5.5 24H19.5C20.8256 23.9984 22.0964 23.4711 23.0338 22.5338C23.9711 21.5964 24.4984 20.3256 24.5 19V7C24.4984 5.67441 23.9711 4.40356 23.0338 3.46622C22.0964 2.52888 20.8256 2.00159 19.5 2ZM2.5 7C2.5 6.20435 2.81607 5.44129 3.37868 4.87868C3.94129 4.31607 4.70435 4 5.5 4H19.5C20.2956 4 21.0587 4.31607 21.6213 4.87868C22.1839 5.44129 22.5 6.20435 22.5 7V8H2.5V7ZM19.5 22H5.5C4.70435 22 3.94129 21.6839 3.37868 21.1213C2.81607 20.5587 2.5 19.7956 2.5 19V10H22.5V19C22.5 19.7956 22.1839 20.5587 21.6213 21.1213C21.0587 21.6839 20.2956 22 19.5 22Z"  />
      <path d="M12.5 16.5C13.3284 16.5 14 15.8284 14 15C14 14.1716 13.3284 13.5 12.5 13.5C11.6716 13.5 11 14.1716 11 15C11 15.8284 11.6716 16.5 12.5 16.5Z"  />
      <path d="M7.5 16.5C8.32843 16.5 9 15.8284 9 15C9 14.1716 8.32843 13.5 7.5 13.5C6.67157 13.5 6 14.1716 6 15C6 15.8284 6.67157 16.5 7.5 16.5Z"  />
      <path d="M17.5 16.5C18.3284 16.5 19 15.8284 19 15C19 14.1716 18.3284 13.5 17.5 13.5C16.6716 13.5 16 14.1716 16 15C16 15.8284 16.6716 16.5 17.5 16.5Z"  />
    </g>
    <defs>
      <clipPath id="clip0_1420_469">
        <rect width="24" height="24"  transform="translate(0.5)" />
      </clipPath>
    </defs>
  </symbol>
  <symbol id="icon-sidebarIcon10" viewBox="0 0 25 24">
    <g clip-path="url(#clip0_1420_474)">
      <path d="M24.5 23.0001C24.5 23.2653 24.3947 23.5196 24.2071 23.7072C24.0196 23.8947 23.7652 24.0001 23.5 24.0001H1.50002C1.23481 24.0001 0.980454 23.8947 0.792918 23.7072C0.605381 23.5196 0.500025 23.2653 0.500025 23.0001C0.500025 22.7348 0.605381 22.4805 0.792918 22.2929C0.980454 22.1054 1.23481 22.0001 1.50002 22.0001H23.5C23.7652 22.0001 24.0196 22.1054 24.2071 22.2929C24.3947 22.4805 24.5 22.7348 24.5 23.0001ZM0.791025 8.55206C0.575547 8.15238 0.475719 7.70056 0.502745 7.24731C0.529771 6.79405 0.68258 6.3573 0.944025 5.98606C1.37128 5.35917 1.94347 4.84462 2.61202 4.48606L10.113 0.582055C10.8503 0.198686 11.669 -0.00146484 12.5 -0.00146484C13.331 -0.00146484 14.1498 0.198686 14.887 0.582055L22.387 4.48906C23.0556 4.84762 23.6278 5.36217 24.055 5.98906C24.3165 6.36029 24.4693 6.79705 24.4963 7.25031C24.5233 7.70356 24.4235 8.15538 24.208 8.55506C23.976 8.99389 23.6281 9.36066 23.2021 9.61544C22.7761 9.87023 22.2884 10.0033 21.792 10.0001H21.5V18.0001H22.5C22.7652 18.0001 23.0196 18.1054 23.2071 18.2929C23.3947 18.4805 23.5 18.7348 23.5 19.0001C23.5 19.2653 23.3947 19.5196 23.2071 19.7072C23.0196 19.8947 22.7652 20.0001 22.5 20.0001H2.50002C2.23481 20.0001 1.98045 19.8947 1.79292 19.7072C1.60538 19.5196 1.50002 19.2653 1.50002 19.0001C1.50002 18.7348 1.60538 18.4805 1.79292 18.2929C1.98045 18.1054 2.23481 18.0001 2.50002 18.0001H3.50003V10.0001H3.20802C2.71118 10.0032 2.22303 9.86976 1.79681 9.61442C1.3706 9.35908 1.02268 8.9916 0.791025 8.55206ZM5.50003 18.0001H8.50003V10.0001H5.50003V18.0001ZM10.5 10.0001V18.0001H14.5V10.0001H10.5ZM19.5 10.0001H16.5V18.0001H19.5V10.0001ZM2.56302 7.62506C2.62577 7.74074 2.71914 7.83692 2.83291 7.90306C2.94668 7.9692 3.07645 8.00276 3.20802 8.00006H21.792C21.9236 8.00276 22.0534 7.9692 22.1671 7.90306C22.2809 7.83692 22.3743 7.74074 22.437 7.62506C22.4827 7.54862 22.5048 7.46039 22.5006 7.37143C22.4963 7.28248 22.4658 7.19676 22.413 7.12506C22.1707 6.76497 21.8452 6.4686 21.464 6.26106L13.964 2.35406C13.512 2.11948 13.0103 1.99703 12.501 1.99703C11.9918 1.99703 11.49 2.11948 11.038 2.35406L3.53803 6.26106C3.15701 6.46926 2.83155 6.76591 2.58902 7.12606C2.53611 7.19746 2.50543 7.28288 2.5008 7.37164C2.49618 7.46039 2.51782 7.54854 2.56302 7.62506Z"  />
    </g>
    <defs>
      <clipPath id="clip0_1420_474">
        <rect width="24" height="24"  transform="translate(0.5)" />
      </clipPath>
    </defs>
  </symbol>
   <symbol id="icon-notification" viewBox="0 0 23 24">
   <path d="M22.555 13.6619L20.655 6.82593C20.0981 4.82327 18.8878 3.06422 17.2164 1.8284C15.545 0.592587 13.5084 -0.049079 11.4305 0.00540109C9.35253 0.0598812 7.35242 0.807381 5.74808 2.12908C4.14373 3.45078 3.02722 5.27084 2.57601 7.29993L1.10501 13.9149C0.942528 14.6459 0.946284 15.404 1.11601 16.1333C1.28573 16.8625 1.61708 17.5444 2.08559 18.1285C2.55411 18.7126 3.14783 19.184 3.82292 19.5079C4.49801 19.8318 5.23724 20 5.98601 19.9999H7.10001C7.32953 21.1302 7.94274 22.1464 8.83576 22.8763C9.72877 23.6062 10.8467 24.0049 12 24.0049C13.1534 24.0049 14.2713 23.6062 15.1643 22.8763C16.0573 22.1464 16.6705 21.1302 16.9 19.9999H17.738C18.5088 20 19.2692 19.8218 19.9598 19.4794C20.6503 19.1369 21.2524 18.6394 21.7188 18.0258C22.1853 17.4122 22.5036 16.699 22.6488 15.942C22.794 15.185 22.7623 14.4046 22.556 13.6619H22.555ZM12 21.9999C11.3818 21.9974 10.7794 21.8038 10.2753 21.4458C9.77125 21.0878 9.3901 20.5828 9.18401 19.9999H14.816C14.6099 20.5828 14.2288 21.0878 13.7247 21.4458C13.2206 21.8038 12.6183 21.9974 12 21.9999ZM20.126 16.8149C19.8474 17.1846 19.4863 17.4842 19.0716 17.6899C18.6569 17.8956 18.1999 18.0018 17.737 17.9999H5.98601C5.5368 17.9999 5.09333 17.8989 4.68835 17.7045C4.28337 17.5101 3.92722 17.2273 3.64617 16.8768C3.36513 16.5264 3.16637 16.1173 3.06457 15.6798C2.96278 15.2423 2.96053 14.7874 3.05801 14.3489L4.52801 7.73293C4.88237 6.13914 5.75932 4.70954 7.01947 3.67138C8.27962 2.63323 9.85064 2.04611 11.4828 2.00335C13.1149 1.96059 14.7145 2.46465 16.0273 3.4354C17.3401 4.40615 18.2907 5.78788 18.728 7.36093L20.628 14.1969C20.7536 14.6423 20.7736 15.1108 20.6864 15.5653C20.5993 16.0197 20.4074 16.4476 20.126 16.8149Z" />
  </symbol>
   <symbol id="icon-dots" viewBox="0 0 4 14">
<path d="M0.541665 12.5416C0.541665 13.347 1.19458 13.9999 1.99999 13.9999C2.8054 13.9999 3.45831 13.347 3.45831 12.5416C3.45831 11.7362 2.8054 11.0833 1.99999 11.0833C1.19458 11.0833 0.541665 11.7362 0.541665 12.5416Z" fill="#0C1230"/>
<path d="M0.541665 7.00007C0.541665 7.80548 1.19458 8.4584 1.99999 8.4584C2.8054 8.4584 3.45831 7.80548 3.45831 7.00007C3.45831 6.19466 2.8054 5.54175 1.99999 5.54175C1.19458 5.54175 0.541665 6.19466 0.541665 7.00007Z" fill="#0C1230"/>
<path d="M0.541665 1.45832C0.541665 2.26373 1.19458 2.91665 1.99999 2.91665C2.8054 2.91665 3.45831 2.26373 3.45831 1.45832C3.45831 0.652914 2.8054 -2.85398e-08 1.99999 -6.37454e-08C1.19458 -9.8951e-08 0.541665 0.652914 0.541665 1.45832Z" fill="#0C1230"/>
  </symbol>
  <symbol id="icon-three-dots" viewBox="0 0 4 14">
<path d="M0.541665 12.5416C0.541665 13.347 1.19458 13.9999 1.99999 13.9999C2.8054 13.9999 3.45831 13.347 3.45831 12.5416C3.45831 11.7362 2.8054 11.0833 1.99999 11.0833C1.19458 11.0833 0.541665 11.7362 0.541665 12.5416Z" fill="#0C1230"/>
<path d="M0.541665 7.00007C0.541665 7.80548 1.19458 8.4584 1.99999 8.4584C2.8054 8.4584 3.45831 7.80548 3.45831 7.00007C3.45831 6.19466 2.8054 5.54175 1.99999 5.54175C1.19458 5.54175 0.541665 6.19466 0.541665 7.00007Z" fill="#0C1230"/>
<path d="M0.541665 1.45832C0.541665 2.26373 1.19458 2.91665 1.99999 2.91665C2.8054 2.91665 3.45831 2.26373 3.45831 1.45832C3.45831 0.652914 2.8054 -2.85398e-08 1.99999 -6.37454e-08C1.19458 -9.8951e-08 0.541665 0.652914 0.541665 1.45832Z" fill="#0C1230"/>
</symbol>
<symbol id="icon-edit" viewBox="0 0 20 20">
<path d="M19.0442 0.956628C18.4776 0.390959 17.7098 0.0732422 16.9092 0.0732422C16.1086 0.0732422 15.3407 0.390959 14.7742 0.956628L1.22085 14.51C0.832722 14.8959 0.524981 15.355 0.315428 15.8606C0.105874 16.3663 -0.00133165 16.9084 1.24844e-05 17.4558V19.1666C1.24844e-05 19.3876 0.0878099 19.5996 0.24409 19.7559C0.40037 19.9122 0.612332 20 0.833346 20H2.54418C3.09148 20.0015 3.63365 19.8945 4.13931 19.6851C4.64496 19.4756 5.10406 19.168 5.49001 18.78L19.0442 5.22579C19.6096 4.65929 19.9271 3.8916 19.9271 3.09121C19.9271 2.29082 19.6096 1.52313 19.0442 0.956628ZM4.31168 17.6016C3.84168 18.0685 3.20665 18.3314 2.54418 18.3333H1.66668V17.4558C1.66584 17.1274 1.73014 16.8021 1.85588 16.4987C1.98161 16.1953 2.16628 15.9198 2.39918 15.6883L12.685 5.40246L14.6017 7.31913L4.31168 17.6016ZM17.865 4.04746L15.7767 6.13663L13.86 4.22413L15.9492 2.13496C16.075 2.00938 16.2244 1.90983 16.3887 1.84197C16.553 1.77411 16.7291 1.73929 16.9069 1.73948C17.0847 1.73967 17.2607 1.77488 17.4249 1.8431C17.5891 1.91131 17.7382 2.01119 17.8638 2.13704C17.9893 2.26289 18.0889 2.41225 18.1568 2.57657C18.2246 2.7409 18.2594 2.91698 18.2592 3.09477C18.2591 3.27255 18.2238 3.44856 18.1556 3.61274C18.0874 3.77692 17.9875 3.92605 17.8617 4.05163L17.865 4.04746Z" fill="#5F646E"/>
</symbol>
<symbol id="icon-delete" viewBox="0 0 20 20" >
<g clip-path="url(#clip0_0_1381)">
<path d="M17.5 3.33333H14.9167C14.7233 2.39284 14.2115 1.54779 13.4677 0.940598C12.7239 0.333408 11.7935 0.0012121 10.8334 0L9.16669 0C8.20652 0.0012121 7.27612 0.333408 6.53231 0.940598C5.7885 1.54779 5.27677 2.39284 5.08335 3.33333H2.50002C2.27901 3.33333 2.06704 3.42113 1.91076 3.57741C1.75448 3.73369 1.66669 3.94565 1.66669 4.16667C1.66669 4.38768 1.75448 4.59964 1.91076 4.75592C2.06704 4.9122 2.27901 5 2.50002 5H3.33335V15.8333C3.33468 16.938 3.77409 17.997 4.5552 18.7782C5.33632 19.5593 6.39536 19.9987 7.50002 20H12.5C13.6047 19.9987 14.6637 19.5593 15.4448 18.7782C16.226 17.997 16.6654 16.938 16.6667 15.8333V5H17.5C17.721 5 17.933 4.9122 18.0893 4.75592C18.2456 4.59964 18.3334 4.38768 18.3334 4.16667C18.3334 3.94565 18.2456 3.73369 18.0893 3.57741C17.933 3.42113 17.721 3.33333 17.5 3.33333ZM9.16669 1.66667H10.8334C11.3502 1.6673 11.8543 1.82781 12.2764 2.1262C12.6984 2.42459 13.0179 2.84624 13.1909 3.33333H6.80919C6.98217 2.84624 7.3016 2.42459 7.72368 2.1262C8.14575 1.82781 8.64979 1.6673 9.16669 1.66667ZM15 15.8333C15 16.4964 14.7366 17.1323 14.2678 17.6011C13.7989 18.0699 13.1631 18.3333 12.5 18.3333H7.50002C6.83698 18.3333 6.20109 18.0699 5.73225 17.6011C5.26341 17.1323 5.00002 16.4964 5.00002 15.8333V5H15V15.8333Z" fill="#5F646E"/>
<path d="M8.33333 14.9999C8.55435 14.9999 8.76631 14.9121 8.92259 14.7558C9.07887 14.5996 9.16667 14.3876 9.16667 14.1666V9.16659C9.16667 8.94557 9.07887 8.73361 8.92259 8.57733C8.76631 8.42105 8.55435 8.33325 8.33333 8.33325C8.11232 8.33325 7.90036 8.42105 7.74408 8.57733C7.5878 8.73361 7.5 8.94557 7.5 9.16659V14.1666C7.5 14.3876 7.5878 14.5996 7.74408 14.7558C7.90036 14.9121 8.11232 14.9999 8.33333 14.9999Z" fill="#5F646E"/>
<path d="M11.6666 14.9999C11.8877 14.9999 12.0996 14.9121 12.2559 14.7558C12.4122 14.5996 12.5 14.3876 12.5 14.1666V9.16659C12.5 8.94557 12.4122 8.73361 12.2559 8.57733C12.0996 8.42105 11.8877 8.33325 11.6666 8.33325C11.4456 8.33325 11.2337 8.42105 11.0774 8.57733C10.9211 8.73361 10.8333 8.94557 10.8333 9.16659V14.1666C10.8333 14.3876 10.9211 14.5996 11.0774 14.7558C11.2337 14.9121 11.4456 14.9999 11.6666 14.9999Z" fill="#5F646E"/>
</g>
<defs>
<clipPath id="clip0_0_1381">
<rect width="20" height="20" fill="white"/>
</clipPath>
</defs>
</symbol>
<symbol id="icon-change-status" viewBox="0 0 20 20">
<path d="M15.8333 5V3.33333C15.8333 2.44928 15.4821 1.60143 14.857 0.976311C14.2319 0.35119 13.3841 0 12.5 0L7.5 0C6.61594 0 5.7681 0.35119 5.14298 0.976311C4.51786 1.60143 4.16667 2.44928 4.16667 3.33333V5C3.062 5.00132 2.00296 5.44073 1.22185 6.22185C0.440735 7.00296 0.00132321 8.062 0 9.16667L0 13.3333C0.00132321 14.438 0.440735 15.497 1.22185 16.2782C2.00296 17.0593 3.062 17.4987 4.16667 17.5C4.16667 18.163 4.43006 18.7989 4.8989 19.2678C5.36774 19.7366 6.00363 20 6.66667 20H13.3333C13.9964 20 14.6323 19.7366 15.1011 19.2678C15.5699 18.7989 15.8333 18.163 15.8333 17.5C16.938 17.4987 17.997 17.0593 18.7782 16.2782C19.5593 15.497 19.9987 14.438 20 13.3333V9.16667C19.9987 8.062 19.5593 7.00296 18.7782 6.22185C17.997 5.44073 16.938 5.00132 15.8333 5V5ZM5.83333 3.33333C5.83333 2.89131 6.00893 2.46738 6.32149 2.15482C6.63405 1.84226 7.05797 1.66667 7.5 1.66667H12.5C12.942 1.66667 13.366 1.84226 13.6785 2.15482C13.9911 2.46738 14.1667 2.89131 14.1667 3.33333V5H5.83333V3.33333ZM14.1667 17.5C14.1667 17.721 14.0789 17.933 13.9226 18.0893C13.7663 18.2455 13.5543 18.3333 13.3333 18.3333H6.66667C6.44565 18.3333 6.23369 18.2455 6.07741 18.0893C5.92113 17.933 5.83333 17.721 5.83333 17.5V14.1667C5.83333 13.9457 5.92113 13.7337 6.07741 13.5774C6.23369 13.4211 6.44565 13.3333 6.66667 13.3333H13.3333C13.5543 13.3333 13.7663 13.4211 13.9226 13.5774C14.0789 13.7337 14.1667 13.9457 14.1667 14.1667V17.5ZM18.3333 13.3333C18.3333 13.9964 18.0699 14.6323 17.6011 15.1011C17.1323 15.5699 16.4964 15.8333 15.8333 15.8333V14.1667C15.8333 13.5036 15.5699 12.8677 15.1011 12.3989C14.6323 11.9301 13.9964 11.6667 13.3333 11.6667H6.66667C6.00363 11.6667 5.36774 11.9301 4.8989 12.3989C4.43006 12.8677 4.16667 13.5036 4.16667 14.1667V15.8333C3.50363 15.8333 2.86774 15.5699 2.3989 15.1011C1.93006 14.6323 1.66667 13.9964 1.66667 13.3333V9.16667C1.66667 8.50363 1.93006 7.86774 2.3989 7.3989C2.86774 6.93006 3.50363 6.66667 4.16667 6.66667H15.8333C16.4964 6.66667 17.1323 6.93006 17.6011 7.3989C18.0699 7.86774 18.3333 8.50363 18.3333 9.16667V13.3333Z" fill="#5F646E"/>
</symbol>
<symbol id="icon-triangle" viewBox="0 0 20 20">
<rect y="8.4856" width="12" height="12" rx="2" transform="rotate(-45 0 8.4856)" fill="white"/>
</symbol>
<symbol id="icon-close" viewBox="0 0 18 18">
<path d="M17 17L1 1M17 1L1 17" stroke="#212121" stroke-width="2" stroke-linecap="round"/>
</symbol>
<symbol id="icon-search" viewBox="0 0 18 18">
<path d="M7.24443 14.483C8.8533 14.483 10.4161 13.9462 11.6854 12.9576L16.474 17.7462C16.8317 18.0917 17.4017 18.0818 17.7472 17.724C18.0842 17.3751 18.0842 16.8219 17.7472 16.473L12.9586 11.6844C15.4118 8.5265 14.8406 3.97782 11.6827 1.52464C8.52475 -0.928536 3.97612 -0.357275 1.52294 2.80063C-0.930245 5.95854 -0.358984 10.5072 2.79892 12.9604C4.07027 13.948 5.63451 14.4838 7.24443 14.483ZM3.39686 3.3958C5.52184 1.27078 8.96711 1.27074 11.0921 3.39572C13.2171 5.5207 13.2172 8.96597 11.0922 11.091C8.96723 13.216 5.52196 13.216 3.39694 11.0911C3.3969 11.091 3.3969 11.091 3.39686 11.091C1.27188 8.98149 1.25936 5.54878 3.36886 3.4238C3.37818 3.41444 3.3875 3.40512 3.39686 3.3958Z" fill="#A0A7B3"/>
</symbol>
<symbol id="icon-filter" viewBox="0 0 18 18">
<path d="M11.6667 20C11.4864 20 11.3109 19.9415 11.1667 19.8333L7.83333 17.3333C7.72983 17.2557 7.64583 17.1551 7.58797 17.0393C7.53012 16.9236 7.5 16.796 7.5 16.6667V11.9833L1.65333 5.40583C1.2381 4.9374 0.966979 4.35901 0.872563 3.7402C0.778147 3.12138 0.86445 2.48846 1.1211 1.91751C1.37775 1.34656 1.79382 0.861882 2.31931 0.521721C2.8448 0.181561 3.45735 0.000395349 4.08333 0L15.9167 0C16.5426 0.000734209 17.155 0.182199 17.6803 0.522589C18.2055 0.862978 18.6214 1.34781 18.8777 1.91882C19.1341 2.48983 19.2201 3.12273 19.1255 3.74146C19.0308 4.36018 18.7595 4.93841 18.3442 5.40667L12.5 11.9833V19.1667C12.5 19.3877 12.4122 19.5996 12.2559 19.7559C12.0996 19.9122 11.8877 20 11.6667 20ZM9.16666 16.25L10.8333 17.5V11.6667C10.8335 11.4626 10.9085 11.2657 11.0442 11.1133L17.1008 4.29917C17.3028 4.0709 17.4346 3.7892 17.4804 3.48788C17.5262 3.18655 17.484 2.87842 17.359 2.60046C17.2339 2.32251 17.0313 2.08655 16.7755 1.92091C16.5197 1.75527 16.2214 1.66699 15.9167 1.66667H4.08333C3.77871 1.66713 3.48068 1.75546 3.225 1.92105C2.96932 2.08665 2.76684 2.3225 2.64184 2.60029C2.51684 2.87809 2.47463 3.18605 2.52027 3.48723C2.56591 3.78842 2.69747 4.07004 2.89916 4.29833L8.95666 11.1133C9.09201 11.2659 9.16673 11.4627 9.16666 11.6667V16.25Z"/>
</symbol>
<symbol id="icon-plus" viewBox="0 0 16 16">
<path d="M14.6667 6.66667H9.33333V1.33333C9.33333 0.979711 9.19286 0.640573 8.94281 0.390525C8.69276 0.140476 8.35362 0 8 0C7.64638 0 7.30724 0.140476 7.05719 0.390525C6.80714 0.640573 6.66667 0.979711 6.66667 1.33333V6.66667H1.33333C0.979711 6.66667 0.640573 6.80714 0.390525 7.05719C0.140476 7.30724 0 7.64638 0 8C0 8.35362 0.140476 8.69276 0.390525 8.94281C0.640573 9.19286 0.979711 9.33333 1.33333 9.33333H6.66667V14.6667C6.66667 15.0203 6.80714 15.3594 7.05719 15.6095C7.30724 15.8595 7.64638 16 8 16C8.35362 16 8.69276 15.8595 8.94281 15.6095C9.19286 15.3594 9.33333 15.0203 9.33333 14.6667V9.33333H14.6667C15.0203 9.33333 15.3594 9.19286 15.6095 8.94281C15.8595 8.69276 16 8.35362 16 8C16 7.64638 15.8595 7.30724 15.6095 7.05719C15.3594 6.80714 15.0203 6.66667 14.6667 6.66667Z" fill="white"/>
</symbol>
<symbol  id="icon-arrow-down" viewBox="0 0 6 3">
<path d="M0.453615 0H5.54638C5.63648 0.000327941 5.72443 0.0238409 5.79913 0.0675658C5.87383 0.111291 5.93191 0.173264 5.96605 0.245649C6.00018 0.318034 6.00882 0.39758 5.99088 0.474228C5.97294 0.550876 5.92922 0.621185 5.86525 0.676264L3.32342 2.88302C3.28108 2.92009 3.23069 2.94951 3.17518 2.96959C3.11967 2.98966 3.06013 3 3 3C2.93987 3 2.88033 2.98966 2.82482 2.96959C2.76931 2.94951 2.71892 2.92009 2.67658 2.88302L0.134748 0.676264C0.0707822 0.621185 0.027065 0.550876 0.00912409 0.474228C-0.00881684 0.39758 -0.000175887 0.318034 0.0339546 0.245649C0.0680851 0.173264 0.126172 0.111291 0.200871 0.0675658C0.275569 0.0238409 0.363525 0.000327941 0.453615 0Z"/>
</symbol>
</svg>

